<svg width="50" height="26" viewBox="0 0 50 26" fill="none" xmlns="http://www.w3.org/2000/svg">
<path d="M11.875 11.5156C11.5625 10.5781 11.25 8.85938 11.25 8.85938H11.1719C11.1719 8.85938 10.8594 10.5781 10.625 11.5156L9.6875 14.4062H12.7344L11.875 11.5156ZM48.125 0.5H26.25V25.5H48.125C49.1406 25.5 50 24.7188 50 23.625V2.375C50 1.35938 49.1406 0.5 48.125 0.5ZM46.25 9.875C46.25 10.4219 45.7812 10.8125 45.3125 10.8125H44.375C43.8281 12.6875 42.6562 14.5625 41.0156 16.2812C41.7188 16.8281 42.4219 17.2969 43.125 17.6875C43.5156 18 43.6719 18.5469 43.4375 19.0156L42.8125 20.0312C42.5 20.5 41.9531 20.6562 41.4844 20.4219C40.4688 19.7969 39.6094 19.1719 38.75 18.4688C37.8906 19.1719 36.9531 19.7969 35.9375 20.4219C35.4688 20.6562 34.9219 20.5 34.6875 20.0312L34.0625 19.0156C33.75 18.5469 33.9062 18 34.375 17.6875C35.0781 17.2969 35.7812 16.8281 36.4062 16.2812C35.7812 15.6562 35.2344 14.9531 34.7656 14.3281C34.4531 13.8594 34.6094 13.2344 35.0781 13L35.5469 12.6875L36.0938 12.2969C36.5625 12.0625 37.1094 12.2188 37.3438 12.6094C37.7344 13.1562 38.2031 13.7031 38.75 14.25C39.7656 13.0781 40.625 11.9844 41.0938 10.8125H32.1875C31.6406 10.8125 31.25 10.4219 31.25 9.875V8.625C31.25 8.15625 31.6406 7.6875 32.1875 7.6875H37.1875V6.4375C37.1875 5.96875 37.5781 5.5 38.125 5.5H39.375C39.8438 5.5 40.3125 5.96875 40.3125 6.4375V7.6875H45.3125C45.7812 7.6875 46.25 8.15625 46.25 8.625V9.875ZM0 2.375V23.625C0 24.7188 0.78125 25.5 1.875 25.5H23.75V0.5H1.875C0.78125 0.5 0 1.35938 0 2.375ZM4.53125 19.3281L9.0625 6.04688C9.21875 5.73438 9.53125 5.42188 9.92188 5.42188H12.5C12.8906 5.42188 13.2812 5.73438 13.3594 6.04688L17.8906 19.3281C18.0469 19.875 17.6562 20.5 16.9531 20.5H15.1562C14.7656 20.5 14.375 20.2656 14.2969 19.875L13.5938 17.375H8.82812L8.125 19.875C8.04688 20.2656 7.65625 20.5 7.26562 20.5H5.46875C4.84375 20.5 4.375 19.875 4.53125 19.3281Z" fill="#FED700"/>
</svg>
